<?xml version="1.0" encoding="UTF-8"?>
<svg width="58px" height="58px" viewBox="0 0 58 58" version="1.1" xmlns="http://www.w3.org/2000/svg" xmlns:xlink="http://www.w3.org/1999/xlink">
    <!-- Generator: sketchtool 49 (51002) - http://www.bohemiancoding.com/sketch -->
    <title>397B2C21-01BA-4FFE-ACFD-26B79DB084DA</title>
    <desc>Created with sketchtool.</desc>
    <defs>
        <path d="M12.2099809,20.8561785 C12.1543048,20.8561785 12.0994898,20.8599941 12.0458227,20.867919 C11.9921556,20.8599941 11.9373406,20.8561785 11.8816645,20.8561785 L5.09779974,20.8561785 C6.16999362,18.801585 6.16970663,15.6055181 6.16970663,12.6143235 C6.16970663,7.83563252 8.1984375,5.29997065 11.8816645,5.29997065 L12.2099809,5.29997065 C15.8934949,5.29997065 17.9219388,7.83563252 17.9219388,12.6143235 C17.9219388,15.6055181 17.9219388,18.801585 18.9938457,20.8561785 L12.2099809,20.8561785 Z M12.683801,24.3460522 C12.5681441,24.4702084 12.3853316,24.6492515 11.9941645,24.6492515 C11.6141901,24.6492515 11.4445791,24.4605225 11.3392538,24.3437041 C11.1142538,24.0942178 10.9853954,23.791312 10.9173788,23.2042853 L11.8816645,23.2042853 C11.9373406,23.2042853 11.9921556,23.2001761 12.0458227,23.1922512 C12.0994898,23.2001761 12.1543048,23.2042853 12.2099809,23.2042853 L13.1461416,23.2042853 C13.0649235,23.791312 12.9240115,24.088641 12.683801,24.3460522 L12.683801,24.3460522 Z M20.2801339,12.6612856 C20.2801339,7.03228647 17.7856186,3.49486352 13.4807717,2.97035515 L13.4807717,1.17552099 C13.4807717,0.526269445 12.9673469,0 12.3328125,0 C11.6985651,0 11.1848533,0.526269445 11.1848533,1.17552099 L11.1848533,2.93572058 C6.59301658,3.31699442 3.93405612,6.89051952 3.93405612,12.6612856 C3.93405612,19.8403287 3.09575893,20.9988259 1.16403061,20.9988259 C0.529783163,20.9988259 0,21.4523041 0,22.1015556 C0,22.7508072 0.499075255,23.2042853 1.1333227,23.2042853 L8.59764031,23.2042853 C8.68632015,24.0848254 8.94461097,25.1673026 9.64285714,25.9474611 C10.238074,26.6122689 11.0511161,27 11.9941645,27 C12.9308992,27 13.7468112,26.5984737 14.3546556,25.9418844 C15.0787309,25.1590842 15.3660077,24.0848254 15.4767857,23.2042853 L22.9583227,23.2042853 C23.5928571,23.2042853 24.1071429,22.7508072 24.1071429,22.1015556 C24.1071429,21.4523041 23.5928571,20.9988259 22.9583227,20.9988259 C21.0268814,20.9988259 20.2801339,19.8403287 20.2801339,12.6612856 Z" id="path-1"></path>
    </defs>
    <g id="Page-1" stroke="none" stroke-width="1" fill="none" fill-rule="evenodd">
        <g id="DSS-Desktop---HD" transform="translate(-513.000000, -292.000000)">
            <g id="dashboard/alert" transform="translate(513.000000, 292.000000)">
                <circle id="Oval-5" fill="#005D62" cx="29" cy="29" r="29"></circle>
                <g id="colour-/-green---1" transform="translate(17.000000, 14.000000)">
                    <mask id="mask-2" fill="white">
                        <use xlink:href="#path-1"></use>
                    </mask>
                    <use id="Mask" fill="#000000" xlink:href="#path-1"></use>
                    <g mask="url(#mask-2)" fill="#FFFFFF" id="Rectangle">
                        <rect x="0" y="0" width="24.1071429" height="27"></rect>
                    </g>
                </g>
            </g>
        </g>
    </g>
</svg>