<?xml version="1.0" encoding="UTF-8"?>
<svg width="20px" height="22px" viewBox="0 0 20 22" version="1.1" xmlns="http://www.w3.org/2000/svg" xmlns:xlink="http://www.w3.org/1999/xlink">
    <!-- Generator: sketchtool 49 (51002) - http://www.bohemiancoding.com/sketch -->
    <title>21772ED8-BA2F-4CAB-991A-233D25713168</title>
    <desc>Created with sketchtool.</desc>
    <defs>
        <path d="M10.1297619,16.9939232 C10.0835714,16.9939232 10.0380952,16.9970323 9.99357143,17.0034895 C9.94904762,16.9970323 9.90357143,16.9939232 9.85738095,16.9939232 L4.22928571,16.9939232 C5.11880952,15.31981 5.11857143,12.7156073 5.11857143,10.2783376 C5.11857143,6.38458946 6.80166667,4.3184946 9.85738095,4.3184946 L10.1297619,4.3184946 C13.1857143,4.3184946 14.8685714,6.38458946 14.8685714,10.2783376 C14.8685714,12.7156073 14.8685714,15.31981 15.7578571,16.9939232 L10.1297619,16.9939232 Z M10.5228571,19.8375241 C10.4269048,19.9386883 10.2752381,20.0845753 9.95071429,20.0845753 C9.63547619,20.0845753 9.4947619,19.9307961 9.40738095,19.8356108 C9.22071429,19.6323256 9.11380952,19.3855135 9.05738095,18.9071954 L9.85738095,18.9071954 C9.90357143,18.9071954 9.94904762,18.9038472 9.99357143,18.8973899 C10.0380952,18.9038472 10.0835714,18.9071954 10.1297619,18.9071954 L10.9064286,18.9071954 C10.8390476,19.3855135 10.7221429,19.6277816 10.5228571,19.8375241 L10.5228571,19.8375241 Z M16.825,10.3166031 C16.825,5.7300112 14.7554762,2.84766657 11.1840476,2.42028938 L11.1840476,0.957831915 C11.1840476,0.428812141 10.7580952,0 10.2316667,0 C9.70547619,0 9.27928571,0.428812141 9.27928571,0.957831915 L9.27928571,2.39206862 C5.4697619,2.7027362 3.26380952,5.61449739 3.26380952,10.3166031 C3.26380952,16.1661938 2.56833333,17.1101545 0.965714286,17.1101545 C0.43952381,17.1101545 0,17.4796552 0,18.008675 C0,18.5376947 0.414047619,18.9071954 0.940238095,18.9071954 L7.13285714,18.9071954 C7.20642857,19.6246725 7.42071429,20.506691 8,21.1423757 C8.49380952,21.6840709 9.16833333,22 9.95071429,22 C10.7278571,22 11.4047619,21.6728304 11.9090476,21.1378317 C12.5097619,20.4999946 12.7480952,19.6246725 12.84,18.9071954 L19.0469048,18.9071954 C19.5733333,18.9071954 20,18.5376947 20,18.008675 C20,17.4796552 19.5733333,17.1101545 19.0469048,17.1101545 C17.4445238,17.1101545 16.825,16.1661938 16.825,10.3166031 Z" id="path-1"></path>
    </defs>
    <g id="Page-1" stroke="none" stroke-width="1" fill="none" fill-rule="evenodd">
        <g id="DSS-Mobile-nav-modal" transform="translate(-37.000000, -401.000000)">
            <g id="navigation">
                <g id="icon-/-bell" transform="translate(37.000000, 401.000000)">
                    <g id="colour-/-green---1">
                        <mask id="mask-2" fill="white">
                            <use xlink:href="#path-1"></use>
                        </mask>
                        <use id="Mask" fill="#000000" xlink:href="#path-1"></use>
                        <g id="colour-/-white" mask="url(#mask-2)" fill="#FFFFFF">
                            <rect id="Rectangle" x="0" y="0" width="20" height="22"></rect>
                        </g>
                    </g>
                </g>
            </g>
        </g>
    </g>
</svg>