<svg xmlns="http://www.w3.org/2000/svg" xmlns:xlink="http://www.w3.org/1999/xlink" width="86" height="86" viewBox="0 0 86 86">
    <defs>
        <circle id="b" cx="35" cy="35" r="35"/>
        <filter id="a" width="135.7%" height="135.7%" x="-17.9%" y="-12.1%" filterUnits="objectBoundingBox">
            <feMorphology in="SourceAlpha" operator="dilate" radius="3" result="shadowSpreadOuter1"/>
            <feOffset dy="4" in="shadowSpreadOuter1" result="shadowOffsetOuter1"/>
            <feGaussianBlur in="shadowOffsetOuter1" result="shadowBlurOuter1" stdDeviation="2.5"/>
            <feComposite in="shadowBlurOuter1" in2="SourceAlpha" operator="out" result="shadowBlurOuter1"/>
            <feColorMatrix in="shadowBlurOuter1" values="0 0 0 0 0 0 0 0 0 0.223529412 0 0 0 0 0.282352941 0 0 0 0.403362772 0"/>
        </filter>
    </defs>
    <g fill="none" fill-rule="evenodd" transform="translate(8 4)">
        <use fill="#000" filter="url(#a)" xlink:href="#b"/>
        <use fill="#005D62" xlink:href="#b"/>
        <circle cx="35" cy="35" r="36.5" stroke="#FFF" stroke-width="3"/>
        <path stroke="#FFF" stroke-width="2" d="M44 50.716V46h3a4 4 0 0 0 4-4V27a4 4 0 0 0-4-4H22a4 4 0 0 0-4 4v15a4 4 0 0 0 4 4h16.891L44 50.716z"/>
        <circle cx="26.5" cy="34.5" r="2.5" fill="#FFF"/>
        <circle cx="34.5" cy="34.5" r="2.5" fill="#FFF"/>
        <circle cx="42.5" cy="34.5" r="2.5" fill="#FFF"/>
    </g>
</svg>
