<svg xmlns="http://www.w3.org/2000/svg" xmlns:xlink="http://www.w3.org/1999/xlink" width="6" height="12" viewBox="0 0 6 12">
    <defs>
        <path id="a" d="M6 6c0 .225-.078.44-.217.596L1.195 11.77a.652.652 0 0 1-.49.231.657.657 0 0 1-.508-.254.93.93 0 0 1 .02-1.17L4.276 6 .216 1.424A.93.93 0 0 1 .198.254c.27-.33.717-.34.998-.023l4.588 5.173A.901.901 0 0 1 6 6"/>
    </defs>
    <g fill="none" fill-rule="evenodd">
        <mask id="b" fill="#fff">
            <use xlink:href="#a"/>
        </mask>
        <use fill="#000" xlink:href="#a"/>
        <g fill="#FFF" mask="url(#b)">
            <path d="M0 0h6v12H0z"/>
        </g>
    </g>
</svg>
