<?xml version="1.0" encoding="UTF-8"?>
<svg width="17px" height="15px" viewBox="0 0 17 15" version="1.1" xmlns="http://www.w3.org/2000/svg" xmlns:xlink="http://www.w3.org/1999/xlink">
    <!-- Generator: sketchtool 49 (51002) - http://www.bohemiancoding.com/sketch -->
    <title>995C061F-44D9-4C99-8081-74CBA838EC91</title>
    <desc>Created with sketchtool.</desc>
    <defs>
        <path d="M11.4391707,6.44720071 C11.4391707,9.0891786 9.24622757,11.2382455 6.55082202,11.2382455 C3.85562548,11.2382455 1.66268232,9.0891786 1.66268232,6.44720071 C1.66268232,3.80563931 3.85562548,1.65636416 6.55082202,1.65636416 C9.24622757,1.65636416 11.4391707,3.80563931 11.4391707,6.44720071 Z M6.55082202,12.8946097 C8.06865973,12.8946097 9.46631613,12.3827486 10.5782545,11.5268702 L14.8011383,14.640674 C15.1689976,15.0019755 15.7611257,14.9978106 16.1237598,14.6313031 C16.3035092,14.4499235 16.3929659,14.2135678 16.3929659,13.9772121 C16.3929659,13.7366915 16.300165,13.4961709 16.1145633,13.3137501 L11.8806019,10.1893259 C12.6480902,9.1333261 13.1018531,7.84180353 13.1018531,6.44720071 C13.1018531,2.89207763 10.1631587,-3.43920745e-15 6.55082202,0 C2.93869433,0 -6.53065515e-16,2.89207763 0,6.44720071 C6.53065515e-16,10.0023238 2.93869433,12.8946097 6.55082202,12.8946097 Z" id="path-1"></path>
    </defs>
    <g id="Page-1" stroke="none" stroke-width="1" fill="none" fill-rule="evenodd">
        <g id="DSS-Desktop---HD" transform="translate(-1177.000000, -31.000000)">
            <g id="Colour" transform="translate(1177.000000, 31.000000)">
                <mask id="mask-2" fill="white">
                    <use xlink:href="#path-1"></use>
                </mask>
                <use id="Mask" fill="#000000" xlink:href="#path-1"></use>
                <g id="colour-/-green---1" mask="url(#mask-2)" fill="#003948">
                    <rect id="Rectangle" x="0" y="0" width="19" height="18"></rect>
                </g>
            </g>
        </g>
    </g>
</svg>