<?xml version="1.0" encoding="UTF-8"?>
<svg width="20px" height="20px" viewBox="0 0 20 20" version="1.1" xmlns="http://www.w3.org/2000/svg" xmlns:xlink="http://www.w3.org/1999/xlink">
    <!-- Generator: sketchtool 49 (51002) - http://www.bohemiancoding.com/sketch -->
    <title>B5DC0B32-0658-4351-89EA-C10A090499E6</title>
    <desc>Created with sketchtool.</desc>
    <defs>
        <path d="M9.21065217,18.4386957 C9.40847826,18.4515217 9.64086957,18.4615217 9.88130435,18.4615217 L9.99978261,18.4615217 C10.2421739,18.4615217 10.475,18.4515217 10.6726087,18.4386957 L10.8758696,17.0052174 C10.9206522,16.69 11.1552174,16.4347826 11.4656522,16.3634783 C12.1402174,16.208913 12.7832609,15.9484783 13.3767391,15.59 C13.5517391,15.4843478 13.7615217,15.4530435 13.9597826,15.5019565 C14.0734783,15.5302174 14.1776087,15.5834783 14.266087,15.6569565 L15.4093478,16.5247826 C15.5580435,16.3941304 15.7293478,16.2369565 15.8993478,16.0669565 L15.9830435,15.9832609 C16.153913,15.8123913 16.3117391,15.6404348 16.4428261,15.491087 L15.5763043,14.3367391 C15.3852174,14.0819565 15.3706522,13.7356522 15.54,13.4658696 C15.9,12.8926087 16.1665217,12.2715217 16.3326087,11.618913 C16.388913,11.2926087 16.648913,11.0336957 16.9845652,10.9878261 L18.4386957,10.7886957 C18.4513043,10.591087 18.4615217,10.358913 18.4615217,10.1186957 L18.4615217,10.0002174 C18.4615217,9.75847826 18.4513043,9.52521739 18.4384783,9.32673913 L17.0097826,9.12326087 C16.6945652,9.07847826 16.4397826,8.84413043 16.3684783,8.53413043 C16.2152174,7.86717391 15.9584783,7.23130435 15.6054348,6.64391304 C15.5726087,6.59326087 15.5454348,6.53847826 15.525,6.48021739 C15.4391304,6.23630435 15.4808696,5.96565217 15.6373913,5.75978261 L16.5247826,4.59065217 C16.393913,4.44173913 16.2369565,4.27065217 16.0669565,4.10065217 L15.9832609,4.01695652 C15.8119565,3.84543478 15.64,3.68804348 15.4913043,3.55717391 L14.333913,4.42695652 C14.0604348,4.6326087 13.6878261,4.63130435 13.4176087,4.43304348 C12.8423913,4.07956522 12.2197826,3.81869565 11.566087,3.65826087 C11.2597826,3.58282609 11.0304348,3.32804348 10.9876087,3.01543478 L10.7886957,1.56130435 C10.5908696,1.54847826 10.358913,1.53847826 10.1184783,1.53847826 L10.0002174,1.53847826 C9.75869565,1.53847826 9.52543478,1.54869565 9.32717391,1.56152174 L9.12391304,2.99478261 C9.07586957,3.33391304 8.81086957,3.59608696 8.47956522,3.64717391 C7.825,3.80304348 7.20043478,4.05891304 6.62282609,4.40847826 C6.44478261,4.51630435 6.23086957,4.54717391 6.02978261,4.49434783 C5.91717391,4.465 5.81434783,4.41086957 5.7273913,4.33717391 L4.59065217,3.475 C4.44195652,3.60586957 4.27065217,3.76282609 4.10065217,3.93304348 L4.01695652,4.01673913 C3.84543478,4.18804348 3.68782609,4.35978261 3.55717391,4.50869565 L4.42695652,5.66608696 C4.61565217,5.91695652 4.63282609,6.25717391 4.47065217,6.52565217 C4.45695652,6.54847826 4.44217391,6.57021739 4.42652174,6.59108696 C4.07521739,7.16326087 3.81586957,7.78282609 3.65543478,8.43369565 C3.58,8.73978261 3.32543478,8.96891304 3.01304348,9.01173913 L1.56130435,9.21108696 C1.54847826,9.40891304 1.53847826,9.64108696 1.53847826,9.88152174 L1.53847826,9.99978261 C1.53847826,10.2413043 1.54869565,10.4743478 1.56130435,10.6728261 L2.99456522,10.876087 C3.33413043,10.9241304 3.60086957,11.191087 3.64847826,11.5306522 C3.64978261,11.5402174 3.65108696,11.5495652 3.65195652,11.5591304 C3.80847826,12.2008696 4.06152174,12.8130435 4.40456522,13.38 C4.52152174,13.5734783 4.5476087,13.8082609 4.47586957,14.0223913 C4.44434783,14.1165217 4.39543478,14.2021739 4.33282609,14.276087 L3.47478261,15.408913 C3.60565217,15.5578261 3.76282609,15.7291304 3.93282609,15.8993478 L4.01652174,15.9830435 C4.18804348,16.1545652 4.35978261,16.3119565 4.50847826,16.4428261 L5.66586957,15.5730435 C5.95782609,15.3534783 6.355,15.3730435 6.62304348,15.5986957 C7.18630435,15.9395652 7.79456522,16.1917391 8.4326087,16.3486957 C8.73847826,16.423913 8.9676087,16.6782609 9.01065217,16.9904348 L9.21065217,18.4386957 Z M9.99978261,20 L9.88130435,20 C9.12608696,20 8.4623913,19.916087 8.43456522,19.9126087 C8.09,19.8684783 7.8176087,19.598913 7.77021739,19.2547826 L7.55565217,17.6993478 C7.07826087,17.5480435 6.61695652,17.3523913 6.17565217,17.1145652 L4.94608696,18.0384783 C4.66913043,18.2465217 4.2873913,18.243913 4.01347826,18.0321739 C3.99130435,18.015 3.46282609,17.605 2.92869565,17.0708696 L2.845,16.9871739 C2.31086957,16.4532609 1.90108696,15.9247826 1.88369565,15.9023913 C1.67130435,15.6276087 1.66934783,15.2445652 1.87913043,14.9673913 L2.82869565,13.713913 C2.59826087,13.2695652 2.41043478,12.8054348 2.26673913,12.3267391 L0.742391304,12.1106522 C0.399565217,12.0619565 0.131521739,11.7902174 0.0873913043,11.4467391 C0.0839130435,11.418913 0,10.755 0,9.99978261 L0,9.88152174 C0,9.12608696 0.0839130435,8.4623913 0.0873913043,8.43456522 C0.13173913,8.08978261 0.401521739,7.8173913 0.745869565,7.77021739 L2.30521739,7.55608696 C2.45630435,7.08 2.65152174,6.62 2.88869565,6.17978261 L1.96152174,4.94630435 C1.75326087,4.66934783 1.75586957,4.2876087 1.96782609,4.01347826 C1.985,3.99130435 2.395,3.46282609 2.92891304,2.92869565 L3.0126087,2.845 C3.54673913,2.31108696 4.07521739,1.90108696 4.0976087,1.88391304 C4.3723913,1.67130435 4.75586957,1.66934783 5.03282609,1.87956522 L6.28934783,2.8323913 C6.7323913,2.6026087 7.195,2.41521739 7.6726087,2.27173913 L7.88934783,0.742608696 C7.93804348,0.399565217 8.20978261,0.131521739 8.55326087,0.0873913043 C8.58108696,0.0839130435 9.24478261,0 10.0002174,0 L10.1184783,0 C10.873913,0 11.5376087,0.0839130435 11.5654348,0.0873913043 C11.9102174,0.13173913 12.1826087,0.40173913 12.2297826,0.746086957 L12.4436957,2.3076087 C12.918913,2.45847826 13.378913,2.65304348 13.818913,2.88978261 L15.0536957,1.96152174 C15.3306522,1.75326087 15.7121739,1.75586957 15.9863043,1.96782609 C16.0086957,1.985 16.5371739,2.395 17.0713043,2.92913043 L17.155,3.01282609 C17.6891304,3.54695652 18.098913,4.07565217 18.116087,4.09782609 C18.3286957,4.37282609 18.3304348,4.75630435 18.1202174,5.03326087 L17.1680435,6.2873913 C17.3986957,6.73086957 17.5867391,7.19391304 17.7306522,7.67195652 L19.2578261,7.88956522 C19.6006522,7.93826087 19.8684783,8.21 19.9123913,8.55326087 C19.916087,8.58130435 20,9.245 20,10.0002174 L20,10.1186957 C20,10.873913 19.916087,11.5376087 19.9123913,11.5654348 C19.8682609,11.9102174 19.5982609,12.1826087 19.2536957,12.23 L17.6967391,12.4430435 C17.5456522,12.9193478 17.3504348,13.3802174 17.1128261,13.8208696 L18.0384783,15.0541304 C18.2465217,15.3308696 18.2436957,15.7126087 18.0319565,15.9865217 C18.0147826,16.0086957 17.605,16.5371739 17.0708696,17.0713043 L16.9871739,17.155 C16.4530435,17.688913 15.9245652,18.0991304 15.9021739,18.1163043 C15.6273913,18.328913 15.2436957,18.3306522 14.9667391,18.1202174 L13.7095652,17.166087 C13.2667391,17.3954348 12.8047826,17.5826087 12.3276087,17.7258696 L12.1104348,19.2576087 C12.0617391,19.6004348 11.79,19.8684783 11.4465217,19.9126087 C11.4186957,19.916087 10.755,20 9.99978261,20 L9.99978261,20 Z M10.0002174,7.35086957 C8.5373913,7.35086957 7.3473913,8.54086957 7.3473913,10.0036957 C7.3473913,11.4663043 8.5373913,12.656087 10.0002174,12.656087 C11.4626087,12.656087 12.6523913,11.4663043 12.6523913,10.0036957 C12.6523913,8.54086957 11.4626087,7.35086957 10.0002174,7.35086957 L10.0002174,7.35086957 Z M10.0002174,14.1945652 C7.68913043,14.1945652 5.80891304,12.3145652 5.80891304,10.0036957 C5.80891304,7.6926087 7.68913043,5.8123913 10.0002174,5.8123913 C12.3108696,5.8123913 14.1908696,7.6926087 14.1908696,10.0036957 C14.1908696,12.3145652 12.3108696,14.1945652 10.0002174,14.1945652 L10.0002174,14.1945652 Z" id="path-1"></path>
    </defs>
    <g id="Page-1" stroke="none" stroke-width="1" fill="none" fill-rule="evenodd">
        <g id="DSS-Mobile-nav-modal" transform="translate(-36.000000, -450.000000)">
            <g id="navigation">
                <g id="icon-/-gear" transform="translate(36.000000, 450.000000)">
                    <g id="colour-/-green---1">
                        <mask id="mask-2" fill="white">
                            <use xlink:href="#path-1"></use>
                        </mask>
                        <use id="Mask" fill="#003948" xlink:href="#path-1"></use>
                        <g id="colour-/-white" fill="#003948" mask="url(#mask-2)">
                            <rect id="Rectangle" fill="#FFFFFF" x="0" y="0" width="20" height="20"></rect>
                        </g>
                    </g>
                </g>
            </g>
        </g>
    </g>
</svg>