<?xml version="1.0" encoding="UTF-8"?>
<svg width="16px" height="18px" viewBox="0 0 16 18" version="1.1" xmlns="http://www.w3.org/2000/svg" xmlns:xlink="http://www.w3.org/1999/xlink">
    <!-- Generator: sketchtool 49 (51002) - http://www.bohemiancoding.com/sketch -->
    <title>C33502B4-DA76-4F36-AB30-D338F70BE55C</title>
    <desc>Created with sketchtool.</desc>
    <defs>
        <path d="M8.10380952,13.904119 C8.06685714,13.904119 8.03047619,13.9066628 7.99485714,13.911946 C7.9592381,13.9066628 7.92285714,13.904119 7.88590476,13.904119 L3.38342857,13.904119 C4.09504762,12.53439 4.09485714,10.4036787 4.09485714,8.40954897 C4.09485714,5.22375501 5.44133333,3.53331377 7.88590476,3.53331377 L8.10380952,3.53331377 C10.5485714,3.53331377 11.8948571,5.22375501 11.8948571,8.40954897 C11.8948571,10.4036787 11.8948571,12.53439 12.6062857,13.904119 L8.10380952,13.904119 Z M8.41828571,16.2307015 C8.34152381,16.3134723 8.22019048,16.4328344 7.96057143,16.4328344 C7.70838095,16.4328344 7.59580952,16.307015 7.52590476,16.2291361 C7.37657143,16.0628119 7.29104762,15.8608747 7.24590476,15.4695235 L7.88590476,15.4695235 C7.92285714,15.4695235 7.9592381,15.4667841 7.99485714,15.4615008 C8.03047619,15.4667841 8.06685714,15.4695235 8.10380952,15.4695235 L8.72514286,15.4695235 C8.6712381,15.8608747 8.57771429,16.059094 8.41828571,16.2307015 L8.41828571,16.2307015 Z M13.46,8.44085706 C13.46,4.68819098 11.804381,2.32990901 8.9472381,1.98023677 L8.9472381,0.783680657 C8.9472381,0.350846297 8.60647619,0 8.18533333,0 C7.76438095,0 7.42342857,0.350846297 7.42342857,0.783680657 L7.42342857,1.95714705 C4.37580952,2.21132962 2.61104762,4.59367968 2.61104762,8.44085706 C2.61104762,13.2268858 2.05466667,13.9992173 0.772571429,13.9992173 C0.351619048,13.9992173 0,14.3015361 0,14.7343704 C0,15.1672048 0.331238095,15.4695235 0.752190476,15.4695235 L5.70628571,15.4695235 C5.76514286,16.0565502 5.93657143,16.7782017 6.4,17.2983074 C6.79504762,17.7415126 7.33466667,18 7.96057143,18 C8.58228571,18 9.12380952,17.7323158 9.5272381,17.2945896 C10.0078095,16.7727228 10.1984762,16.0565502 10.272,15.4695235 L15.2375238,15.4695235 C15.6586667,15.4695235 16,15.1672048 16,14.7343704 C16,14.3015361 15.6586667,13.9992173 15.2375238,13.9992173 C13.955619,13.9992173 13.46,13.2268858 13.46,8.44085706 Z" id="path-1"></path>
    </defs>
    <g id="Page-1" stroke="none" stroke-width="1" fill="none" fill-rule="evenodd">
        <g id="DSS-Desktop---HD" transform="translate(-1213.000000, -29.000000)">
            <g id="colour-/-green---1" transform="translate(1213.000000, 29.000000)">
                <mask id="mask-2" fill="white">
                    <use xlink:href="#path-1"></use>
                </mask>
                <use id="Mask" fill="#000000" xlink:href="#path-1"></use>
                <g mask="url(#mask-2)" fill="#003948" id="Rectangle">
                    <rect x="0" y="0" width="16" height="18"></rect>
                </g>
            </g>
        </g>
    </g>
</svg>