<?xml version="1.0" encoding="UTF-8"?>
<svg width="17px" height="17px" viewBox="0 0 17 17" version="1.1" xmlns="http://www.w3.org/2000/svg" xmlns:xlink="http://www.w3.org/1999/xlink">
    <!-- Generator: sketchtool 49 (51002) - http://www.bohemiancoding.com/sketch -->
    <title>571CCA0B-EF3C-4A85-A85F-7B379BD660A6</title>
    <desc>Created with sketchtool.</desc>
    <defs>
        <path d="M7.82905435,15.6728913 C7.99720652,15.6837935 8.19473913,15.6922935 8.3991087,15.6922935 L8.49981522,15.6922935 C8.70584783,15.6922935 8.90375,15.6837935 9.07171739,15.6728913 L9.24448913,14.4544348 C9.28255435,14.1865 9.48193478,13.9695652 9.74580435,13.9089565 C10.3191848,13.7775761 10.8657717,13.5562065 11.3702283,13.2515 C11.5189783,13.1616957 11.6972935,13.135087 11.8658152,13.176663 C11.9624565,13.2006848 12.0509674,13.2459565 12.1261739,13.308413 L13.0979457,14.0460652 C13.224337,13.9350109 13.3699457,13.801413 13.5144457,13.656913 L13.585587,13.5857717 C13.7308261,13.4405326 13.8649783,13.2943696 13.9764022,13.1674239 L13.2398587,12.1862283 C13.0774348,11.969663 13.0650543,11.6753043 13.209,11.4459891 C13.515,10.9587174 13.7415435,10.4307935 13.8827174,9.87607609 C13.9305761,9.59871739 14.1515761,9.3786413 14.4368804,9.33965217 L15.6728913,9.1703913 C15.6836087,9.00242391 15.6922935,8.80507609 15.6922935,8.6008913 L15.6922935,8.50018478 C15.6922935,8.29470652 15.6836087,8.09643478 15.6727065,7.92772826 L14.4583152,7.75477174 C14.1903804,7.71670652 13.9738152,7.51751087 13.9132065,7.25401087 C13.7829348,6.68709783 13.5647065,6.1466087 13.2646196,5.64732609 C13.2367174,5.60427174 13.2136196,5.55770652 13.19625,5.50818478 C13.1232609,5.3008587 13.1587391,5.07080435 13.2917826,4.89581522 L14.0460652,3.90205435 C13.9348261,3.77547826 13.801413,3.63005435 13.656913,3.48555435 L13.5857717,3.41441304 C13.440163,3.26861957 13.294,3.13483696 13.1676087,3.02359783 L12.1838261,3.76291304 C11.9513696,3.93771739 11.6346522,3.9366087 11.4049674,3.76808696 C10.9160326,3.46763043 10.3868152,3.2458913 9.83117391,3.10952174 C9.57081522,3.04540217 9.37586957,2.82883696 9.33946739,2.56311957 L9.1703913,1.3271087 C9.00223913,1.31620652 8.80507609,1.30770652 8.60070652,1.30770652 L8.50018478,1.30770652 C8.2948913,1.30770652 8.09661957,1.3163913 7.92809783,1.32729348 L7.75532609,2.54556522 C7.71448913,2.83382609 7.48923913,3.05667391 7.20763043,3.10009783 C6.65125,3.23258696 6.12036957,3.45007609 5.62940217,3.74720652 C5.47806522,3.8388587 5.29623913,3.86509783 5.12531522,3.82019565 C5.02959783,3.79525 4.94219565,3.74923913 4.86828261,3.68659783 L3.90205435,2.95375 C3.77566304,3.06498913 3.63005435,3.19840217 3.48555435,3.34308696 L3.41441304,3.41422826 C3.26861957,3.55983696 3.13465217,3.70581522 3.02359783,3.8323913 L3.76291304,4.81617391 C3.92330435,5.02941304 3.93790217,5.31859783 3.80005435,5.54680435 C3.78841304,5.56620652 3.77584783,5.58468478 3.76254348,5.60242391 C3.46393478,6.08877174 3.24348913,6.61540217 3.10711957,7.1686413 C3.043,7.42881522 2.82661957,7.62357609 2.56108696,7.65997826 L1.3271087,7.82942391 C1.31620652,7.99757609 1.30770652,8.19492391 1.30770652,8.39929348 L1.30770652,8.49981522 C1.30770652,8.7051087 1.3163913,8.90319565 1.3271087,9.07190217 L2.54538043,9.24467391 C2.83401087,9.28551087 3.06073913,9.51242391 3.10120652,9.80105435 C3.10231522,9.80918478 3.10342391,9.81713043 3.10416304,9.82526087 C3.23720652,10.3707391 3.45229348,10.891087 3.74388043,11.373 C3.84329348,11.5374565 3.86546739,11.7370217 3.80448913,11.9190326 C3.77769565,11.9990435 3.73611957,12.0718478 3.68290217,12.1346739 L2.95356522,13.0975761 C3.06480435,13.2241522 3.19840217,13.3697609 3.34290217,13.5144457 L3.41404348,13.585587 C3.55983696,13.7313804 3.70581522,13.865163 3.83220652,13.9764022 L4.81598913,13.237087 C5.06415217,13.0504565 5.40175,13.067087 5.62958696,13.2588913 C6.1083587,13.5486304 6.62538043,13.7629783 7.16771739,13.8963913 C7.42770652,13.9603261 7.62246739,14.1765217 7.65905435,14.4418696 L7.82905435,15.6728913 Z M8.49981522,17 L8.3991087,17 C7.75717391,17 7.19303261,16.9286739 7.16938043,16.9257174 C6.8765,16.8882065 6.64496739,16.6590761 6.60468478,16.3665652 L6.42230435,15.0444457 C6.01652174,14.915837 5.62441304,14.7495326 5.24930435,14.5473804 L4.20417391,15.3327065 C3.96876087,15.5095435 3.64428261,15.5073261 3.41145652,15.3273478 C3.3926087,15.31275 2.94340217,14.96425 2.4893913,14.5102391 L2.41825,14.4390978 C1.96423913,13.9852717 1.61592391,13.5360652 1.6011413,13.5170326 C1.4206087,13.2834674 1.41894565,12.9578804 1.59726087,12.7222826 L2.4043913,11.6568261 C2.20852174,11.2791304 2.04886957,10.8846196 1.92672826,10.4777283 L0.631032609,10.2940543 C0.339630435,10.252663 0.111793478,10.0216848 0.0742826087,9.72972826 C0.071326087,9.70607609 0,9.14175 0,8.49981522 L0,8.39929348 C0,7.75717391 0.071326087,7.19303261 0.0742826087,7.16938043 C0.111978261,6.87631522 0.341293478,6.64478261 0.63398913,6.60468478 L1.95943478,6.42267391 C2.0878587,6.018 2.25379348,5.627 2.4553913,5.25281522 L1.66729348,4.2043587 C1.49027174,3.96894565 1.49248913,3.64446739 1.67265217,3.41145652 C1.68725,3.3926087 2.03575,2.94340217 2.48957609,2.4893913 L2.56071739,2.41825 C3.01472826,1.96442391 3.46393478,1.61592391 3.48296739,1.60132609 C3.71653261,1.4206087 4.04248913,1.41894565 4.27790217,1.59763043 L5.34594565,2.40753261 C5.72253261,2.21221739 6.11575,2.05293478 6.52171739,1.93097826 L6.70594565,0.631217391 C6.74733696,0.339630435 6.97831522,0.111793478 7.27027174,0.0742826087 C7.29392391,0.071326087 7.85806522,0 8.50018478,0 L8.60070652,0 C9.24282609,0 9.80696739,0.071326087 9.83061957,0.0742826087 C10.1236848,0.111978261 10.3552174,0.341478261 10.3953152,0.634173913 L10.5771413,1.96146739 C10.9810761,2.08970652 11.3720761,2.25508696 11.7460761,2.45631522 L12.7956413,1.66729348 C13.0310543,1.49027174 13.3553478,1.49248913 13.5883587,1.67265217 C13.6073913,1.68725 14.0565978,2.03575 14.5106087,2.48976087 L14.58175,2.56090217 C15.0357609,3.01491304 15.3840761,3.46430435 15.3986739,3.48315217 C15.5793913,3.71690217 15.5808696,4.0428587 15.4021848,4.27827174 L14.592837,5.34428261 C14.7888913,5.72123913 14.9487283,6.11482609 15.0710543,6.52116304 L16.3691522,6.70613043 C16.6605543,6.74752174 16.8882065,6.9785 16.9255326,7.27027174 C16.9286739,7.2941087 17,7.85825 17,8.50018478 L17,8.6008913 C17,9.24282609 16.9286739,9.80696739 16.9255326,9.83061957 C16.8880217,10.1236848 16.6585217,10.3552174 16.3656413,10.3955 L15.0422283,10.576587 C14.9138043,10.9814457 14.7478696,11.3731848 14.5459022,11.7477391 L15.3327065,12.7960109 C15.5095435,13.0312391 15.5071413,13.3557174 15.327163,13.5885435 C15.3125652,13.6073913 14.96425,14.0565978 14.5102391,14.5106087 L14.4390978,14.58175 C13.985087,15.0355761 13.5358804,15.3842609 13.5168478,15.3988587 C13.2832826,15.5795761 12.9571413,15.5810543 12.7217283,15.4021848 L11.6531304,14.5911739 C11.2767283,14.7861196 10.8840652,14.9452174 10.4784674,15.0669891 L10.2938696,16.3689674 C10.2524783,16.6603696 10.0215,16.8882065 9.72954348,16.9257174 C9.7058913,16.9286739 9.14175,17 8.49981522,17 L8.49981522,17 Z M8.50018478,6.24823913 C7.25678261,6.24823913 6.24528261,7.25973913 6.24528261,8.5031413 C6.24528261,9.7463587 7.25678261,10.7576739 8.50018478,10.7576739 C9.74321739,10.7576739 10.7545326,9.7463587 10.7545326,8.5031413 C10.7545326,7.25973913 9.74321739,6.24823913 8.50018478,6.24823913 L8.50018478,6.24823913 Z M8.50018478,12.0653804 C6.53576087,12.0653804 4.93757609,10.4673804 4.93757609,8.5031413 C4.93757609,6.53871739 6.53576087,4.94053261 8.50018478,4.94053261 C10.4642391,4.94053261 12.0622391,6.53871739 12.0622391,8.5031413 C12.0622391,10.4673804 10.4642391,12.0653804 8.50018478,12.0653804 L8.50018478,12.0653804 Z" id="path-1"></path>
    </defs>
    <g id="Page-1" stroke="none" stroke-width="1" fill="none" fill-rule="evenodd">
        <g id="DSS-Desktop---HD" transform="translate(-1252.000000, -30.000000)">
            <g id="colour-/-green---1" transform="translate(1252.000000, 30.000000)">
                <mask id="mask-2" fill="white">
                    <use xlink:href="#path-1"></use>
                </mask>
                <use id="Mask" fill="#003948" xlink:href="#path-1"></use>
                <g fill="#003948" mask="url(#mask-2)" id="Rectangle">
                    <rect x="0" y="0" width="17" height="17"></rect>
                </g>
            </g>
        </g>
    </g>
</svg>