<?xml version="1.0" encoding="UTF-8"?>
<svg width="142px" height="32px" viewBox="0 0 142 32" version="1.1" xmlns="http://www.w3.org/2000/svg" xmlns:xlink="http://www.w3.org/1999/xlink">
    <!-- Generator: sketchtool 49 (51002) - http://www.bohemiancoding.com/sketch -->
    <title>6122BD8C-F3F8-4525-996C-AD955208FDCF</title>
    <desc>Created with sketchtool.</desc>
    <defs></defs>
    <g id="Page-1" stroke="none" stroke-width="1" fill="none" fill-rule="evenodd">
        <g id="DSS-Desktop---HD" transform="translate(-170.000000, -25.000000)" fill="#000000">
            <g id="logo-1-*" transform="translate(170.000000, 25.000000)">
                <path d="M29,16 L23.4625177,16 C23.4285714,14.7457409 23.2708628,13.508122 23,12.3030903 L26.7984441,9 C28.1117397,11.0418978 28.9066478,13.4339342 29,16 Z M2,16 L7.54412459,16 C7.577395,17.249081 7.73171307,18.479384 8,19.6797814 L4.19018405,23 C2.88414346,20.9559861 2.09273242,18.5656234 2,16 Z M26.8040176,23 L22,23 C22.9304417,20.8056405 23.4565261,18.4352628 23.5201879,16 L29,16 C28.9076554,18.5671038 28.115031,20.9595701 26.8040176,23 Z M8,16 L11,16 L8.26170585,19 C8.11307558,18.0177501 8.02331455,17.0146318 8,16 Z M9.55683802,9 L15,9 L14.9966052,13.8468451 L12.6121242,16 L8,16 C8.06653734,13.5544584 8.60630456,11.1801126 9.55683802,9 Z M4.19423885,9 L9,9 C8.07161432,11.1946282 7.54720944,13.5641355 7.4834967,16 L2,16 C2.09241848,13.4328034 2.88427686,11.0397946 4.19423885,9 Z M18,3 C20.2342087,3.485499 22.2789212,4.4927495 24,5.88456071 L21.6188786,8 C20.6799148,6.16676144 19.4655784,4.47711117 18,3 Z M16,8 L16.0047729,3 C16.2393291,3.00686042 16.474567,3.02120494 16.7070776,3.03804416 C18.4846584,4.43881751 19.9356334,6.1271049 21,8 L16,8 Z M20,9 L16,13 L16.0031032,9 L20,9 Z M9.37967014,8 L5,8 C6.94479973,5.50099036 9.75934029,3.68797042 13,3 C11.5122854,4.46705401 10.2924941,6.15858973 9.37967014,8 Z M14.3021033,3.03804416 C14.5329145,3.02120494 14.7664573,3.00686042 15,3 L14.9959028,8 L10,8 C11.0652827,6.1271049 12.5184376,4.43881751 14.3021033,3.03804416 Z M21.4391069,23 L16,23 L16.0006766,18.1418992 L18.3660352,16 L23,16 C22.9336942,18.4449265 22.3924222,20.8187555 21.4391069,23 Z M21.6241498,24 L26,24 C24.0539088,26.5026406 21.2405744,28.3167415 18,29 C19.4892938,27.5351201 20.7118986,25.8418273 21.6241498,24 Z M16.0054437,24 L21,24 C19.9357648,25.8742201 18.4843495,27.5631395 16.7035928,28.9625655 C16.4708764,28.9806588 16.2361187,28.993137 16,29 L16.0054437,24 Z M11,23 L15,19 L14.9962917,23 L11,23 Z M10,24 L15,24 L14.9951923,29 C14.7760989,28.9918892 14.5549451,28.979411 14.3372253,28.9625655 C12.540522,27.5631395 11.0741758,25.8742201 10,24 Z M9.37505871,24 C10.3128229,25.8353805 11.5302959,27.5253424 13,29 C10.7609206,28.5185656 8.71700329,27.5098122 7,26.1128053 L9.37505871,24 Z M22,16 L19,16 L21.7364982,13 C21.8864117,13.9831394 21.977513,14.9855141 22,16 Z M31,4.99948404 L31,0 L0.0299435147,0 L0.0299435147,16.2545972 L1.31556181,16.2545972 C1.3650337,19.0198337 2.18327279,21.596186 3.56653298,23.7742967 L0,26.9846656 L0,32 L30.9661508,32 L30.9661508,15.7315337 L29.7085232,15.7315337 C29.6584004,12.9596929 28.8343028,10.3787175 27.4445331,8.19862547 L31,4.99948404 Z" id="Fill-1"></path>
                <path d="M51.4172409,14 L39.4144846,14 L39,13.4107667 L49.2962505,2.03735576 C48.4925628,1.88353217 47.6702466,1.80662038 46.8246448,1.80662038 C43.900632,1.80662038 42.0750368,2.55031293 40.4057881,4.69113045 L39.6706268,4.46103071 L41.2507247,1 L52.1131493,1 L52.326712,1.71381772 L42.0969919,13.0312928 L44.8939315,13.2391453 C48.1226536,13.2391453 50.8517322,12.6696167 52.326712,9.86138275 L53,10.08894 L51.4172409,14 Z" id="Fill-3"></path>
                <path d="M71,1 L71,1.6043694 L70.8012046,1.6043694 C70.2081877,1.64710933 69.5956282,1.72457546 69.286316,2.2675062 C69.0187845,2.72896394 69.0470876,3.6104751 69.0470876,4.13003244 L69.0470876,10.3286587 C69.0470876,11.8733066 68.9082677,12.9531578 67.5106347,13.9789162 C66.3252748,14.8183553 64.6783052,15 63.2078929,15 C61.6916565,15 60.1552036,14.8604274 58.8613486,14.0757489 C57.2359432,13.0954016 57.018953,12.0128792 57.018953,10.3660561 L57.018953,4.13003244 C57.018953,2.78906697 57.151034,1.7499523 55.3483974,1.62573936 L55,1.6043694 L55,1 L61.3830182,1 L61.3830182,1.6043694 L61.0777492,1.62573936 C60.463842,1.64710933 59.7603083,1.66714367 59.434149,2.2675062 C59.1645959,2.72896394 59.2137893,3.6104751 59.2137893,4.13003244 L59.2137893,9.00372066 C59.2137893,10.1062774 59.060144,11.6916619 59.7387441,12.6145774 C60.5521206,13.7391719 62.1323759,13.9949437 63.5185528,13.9949437 C64.7854526,13.9949437 66.3913153,13.6970998 67.1554985,12.6559817 C67.8805964,11.6729632 67.8199469,10.1062774 67.8199469,8.94562106 L67.8199469,4.13003244 C67.8199469,2.74766266 67.9493324,1.7032055 66.082677,1.62573936 L65.6473487,1.6043694 L65.6473487,1 L71,1 Z" id="Fill-5"></path>
                <path d="M86.3335763,4.42306 L85.6735298,4.67224097 C83.985469,2.72138282 82.2616954,1.80665982 79.5201111,1.80665982 C78.9365918,1.80665982 77.9634219,1.8238228 77.4851273,2.17026062 C76.966656,2.53259009 76.9456111,3.08689062 76.9456111,3.63801281 L76.9456111,6.57860251 L78.3371293,6.57860251 C80.4365235,6.57860251 80.8274496,6.11838052 81.0748873,4.22727495 L81.7859518,4.22727495 L81.7859518,9.93555327 L81.0748873,9.93555327 C81.0162165,9.34438414 80.9116294,8.77228497 80.5360087,8.27710136 C80.002232,7.51620948 79.2095386,7.47234854 78.2956771,7.47234854 L76.9456111,7.47234854 L76.9456111,11.2736297 C76.9456111,11.6531221 76.9902519,12.2894235 77.2549082,12.605985 C77.6904751,13.1399443 78.7095613,13.1818982 79.3740719,13.1818982 C82.5760944,13.1818982 84.4631258,11.9798543 86.3335763,9.66920933 L87,9.93555327 L85.1046782,14 L73,14 L73,13.4310792 L73.2085364,13.4113735 C73.765909,13.3535279 74.3660092,13.3350936 74.6593632,12.8024058 C74.9099895,12.3631607 74.8672619,11.5228106 74.8672619,11.0231774 L74.8672619,3.98000098 C74.8672619,2.72138282 75.0126634,1.71321696 73.3092971,1.59625446 L73,1.57527749 L73,1 L84.8999681,1 L86.3335763,4.42306 Z" id="Fill-7"></path>
                <path d="M100.264352,14 L89,14 L89,13.4304713 L89.194259,13.4107667 C89.759012,13.3891551 90.3718291,13.3147858 90.6715621,12.8024643 C90.9419226,12.3632408 90.8911883,11.5229317 90.8911883,11.0233229 L90.8911883,4.00146685 C90.8911883,2.74036769 91.0420561,1.72970859 89.2863818,1.59686094 L89,1.575885 L89,1 L95.1742323,1 L95.1742323,1.575885 L94.8918558,1.59686094 C94.2810414,1.63499902 93.6361816,1.67186583 93.3037383,2.20834148 C93.0233645,2.66282026 93.0640854,3.48406024 93.0640854,4.00146685 L93.0640854,11.4288578 C93.0640854,11.7867201 93.0640854,12.4395169 93.2850467,12.7427146 C93.5700935,13.1819382 94.4372497,13.2798259 94.9345794,13.2798259 C97.7863818,13.2798259 99.9185581,11.6754841 101.391856,9.68849012 L102,9.935752 L100.264352,14 Z" id="Fill-9"></path>
                <path d="M114.259459,14 L103,14 L103,13.4304713 L103.196211,13.4107667 C103.765491,13.3891551 104.370142,13.3147858 104.6718,12.8024643 C104.934083,12.3632408 104.890035,11.5229317 104.890035,11.0233229 L104.890035,4.00146685 C104.890035,2.74036769 105.044869,1.72970859 103.283639,1.59686094 L103,1.575885 L103,1 L109.17198,1 L109.17198,1.575885 L108.893013,1.59686094 C108.281021,1.63499902 107.630987,1.67186583 107.299964,2.20834148 C107.02033,2.66282026 107.062375,3.48406024 107.062375,4.00146685 L107.062375,11.4288578 C107.062375,11.7867201 107.062375,12.4395169 107.285949,12.7427146 C107.559577,13.1819382 108.431182,13.2798259 108.937728,13.2798259 C111.778787,13.2798259 113.905745,11.6754841 115.388008,9.68849012 L116,9.935752 L114.259459,14 Z" id="Fill-11"></path>
                <path d="M119.888952,3.96460004 C119.888952,2.70413651 119.975651,1.71318208 118.265559,1.57524936 L118,1.57524936 L118,1 L124,1 L124,1.57524936 L123.730345,1.57524936 C122.025031,1.71318208 122.111731,2.70413651 122.111731,3.96460004 L122.111731,11.0226873 C122.111731,12.2888715 121.958129,13.2798259 123.664808,13.4107667 L124,13.4304713 L124,14 L118,14 L118,13.4304713 L118.327682,13.4107667 C120.043919,13.2798259 119.888952,12.2888715 119.888952,11.0226873 L119.888952,3.96460004 Z" id="Fill-13"></path>
                <path d="M139.94913,5.50426275 L139.121821,5.71427906 C137.834672,3.89522478 136.006693,1.97833683 133.38822,1.97833683 C129.878179,1.97833683 128.61245,5.34707664 128.61245,7.96771488 C128.61245,9.34064757 128.898929,10.7494526 129.706827,11.9306313 C130.597724,13.1998602 132.076305,14.0203587 133.759036,14.0203587 C135.917001,14.0203587 138.143909,12.9689727 138.143909,10.7898905 C138.143909,9.4423946 137.420348,9.04714652 136.028782,8.91148381 L136.028782,8.32317727 L142,8.32317727 L142,8.91148381 L141.818608,8.92778942 C141.280455,8.96887957 140.672691,9.06410436 140.38822,9.55783834 C140.12249,10.0267878 140.165328,10.8681575 140.165328,11.3990683 L140.165328,14.666061 L139.121821,14.666061 L138.442436,13.3172607 C137.076305,14.3908223 135.372825,15 133.564257,15 C129.101071,15 126,11.8888889 126,7.96771488 C126,6.21323084 126.566934,4.54353599 127.870147,3.21430235 C129.202811,1.88180759 131.230254,1 133.239625,1 C134.717537,1 136.360107,1.46894945 137.528112,2.27053343 L137.945783,1.3267645 L138.623829,1.3267645 L139.94913,5.50426275 Z" id="Fill-15"></path>
                <path d="M45.5149347,24 C46.5478955,24 47.4452213,23.9388485 48.1830505,23.179009 C48.812246,22.5310636 49,21.8122086 49,20.9515342 C49,20.1103762 48.6897978,19.2698688 48.0455317,18.7038924 C47.386195,18.1561314 46.4285869,18 45.5890316,18 C45.0521431,18 43.7215389,18.0598504 43.2951678,18.3708121 C42.9636157,18.5900466 43.0012921,19.2158734 43.0012921,19.5470021 L43.0012921,24 L45.5149347,24 Z M42.8710698,27.0075784 C42.8710698,27.5236885 42.8330871,28.287684 43.0647816,28.7440473 C43.352184,29.3357943 44.0099177,29.3713881 44.6094113,29.4088887 L45.0221566,29.4317704 L45.0221566,30 L39,30 L39,29.4317704 L39.1861152,29.4088887 C39.7412956,29.3713881 40.3142013,29.2957512 40.592108,28.8025229 C40.8351973,28.3467951 40.8155729,27.5236885 40.8155729,27.0075784 L40.8155729,19.9816164 C40.8155729,18.7212145 40.9548428,17.7137828 39.2912007,17.598103 L39,17.5764924 L39,17 L45.7425617,17 C46.9371175,17 48.1525638,17.1188579 49.2059506,17.6909011 C50.3365689,18.3245979 51,19.3879626 51,20.6153132 C51,21.721899 50.465077,22.7916198 49.49272,23.4577324 C48.4614898,24.1816848 46.9814307,24.3170684 45.7261026,24.3170684 L42.8710698,24.3170684 L42.8710698,27.0075784 Z" id="Fill-17"></path>
                <path d="M55.9290827,19.9809808 C55.9290827,18.7205789 56.0822374,17.7137828 54.3222907,17.5974674 L54,17.5758568 L54,17 L60.1161978,17 L60.1161978,17.5758568 L59.873148,17.5758568 C59.2725154,17.6171711 58.6392542,17.6737398 58.3376061,18.2076468 C58.0739138,18.6621034 58.0952222,19.4858456 58.0952222,20.0013201 L58.0952222,22.6142864 L65.8788081,22.6142864 L65.8788081,20.0013201 C65.8788081,18.7205789 66.0306309,17.7137828 64.2493757,17.5974674 L63.9297486,17.5758568 L63.9297486,17 L70,17 L70,17.5758568 L69.7862494,17.5758568 C69.196271,17.6362392 68.5670052,17.6909011 68.2873314,18.2076468 C68.0116531,18.6621034 68.0516065,19.4858456 68.0516065,19.9809808 L68.0516065,27.024104 C68.0516065,28.2870484 67.9011154,29.2951156 69.6830365,29.4088887 L70,29.4311348 L70,30 L63.9297486,30 L63.9297486,29.4311348 L64.1421675,29.4311348 C64.7328117,29.3885494 65.3387714,29.3141837 65.6404195,28.8018873 C65.903446,28.3461595 65.8788081,27.5230529 65.8788081,27.024104 L65.8788081,23.4183249 L58.0952222,23.4183249 L58.0952222,27.024104 C58.0952222,28.3042097 57.9607125,29.2951156 59.7406359,29.4088887 L60.1161978,29.4311348 L60.1161978,30 L54,30 L54,29.4311348 L54.2164142,29.4311348 C54.8030631,29.3707525 55.4056934,29.3141837 55.7153321,28.8018873 C55.9743632,28.3461595 55.9290827,27.5230529 55.9290827,27.024104 L55.9290827,19.9809808 Z" id="Fill-19"></path>
                <path d="M81,25 L78.4651734,19 L76,25 L81,25 Z M84.4615007,27.024104 C84.9990191,28.2082335 85.3102828,29.3516843 87,29.4311348 L87,30 L81.0114435,30 L81.0114435,29.4311348 C81.718326,29.3516843 82.675658,29.2182076 82.675658,28.4745514 C82.675658,28.1478512 82.4860226,27.7130983 82.3604708,27.4264411 L81.3965996,25.1744976 L75.9226745,25.1744976 L75.3269577,26.6065125 C75.1530162,27.0069427 74.8450221,27.7493277 74.8450221,28.1923434 C74.8450221,29.1393928 75.6885728,29.3357943 76.7126042,29.4311348 L76.7126042,30 L71,30 L71,29.4311348 L71.2406408,29.3885494 C72.2614026,29.1826138 72.6184404,28.9544321 73.1585745,28.1154354 C73.6392022,27.3342786 74.1727971,26.0522662 74.5396436,25.1884809 L78.1008664,17 L80.0783064,17 L84.4615007,27.024104 Z" id="Fill-21"></path>
                <path d="M95.1268159,23 C96.0573778,23 96.9975331,22.9826928 97.8110553,22.4998806 C98.6021928,22.0331821 99,21.2615183 99,20.4391263 C99,18.4129864 96.9156693,18 94.9733212,18 C94.3734125,18 93.0629511,18.0525185 92.5218821,18.3186918 C92.0191868,18.5765099 92,18.8755073 92,19.3266889 L92,23 L95.1268159,23 Z M101.510825,27.9953063 C102.192152,28.8203198 102.828823,29.2582506 104,29.4311348 L104,30 L100.312585,30 L95.4093369,23.8600694 L92.3179973,23.8600694 L92.3179973,27.0069427 C92.3179973,28.3239134 92.1833559,29.3141837 94.0358593,29.4311348 L94.5,29.4311348 L94.5,30 L88,30 L88,29.4311348 L88.2868742,29.4088887 C88.902571,29.3713881 89.5595399,29.3357943 89.8985115,28.8018873 C90.1529093,28.3461595 90.1170501,27.5230529 90.1170501,27.0069427 L90.1170501,19.9809808 C90.1170501,18.6621034 90.2692828,17.6909011 88.4188092,17.5974674 L88,17.5758568 L88,17 L96.767253,17 C99.3024357,17 102.037212,17.6737398 102.037212,20.3426392 C102.037212,22.3333496 100.09134,23.5168435 97.9844384,23.6821004 L101.510825,27.9953063 Z" id="Fill-23"></path>
                <path d="M113.39971,30 L108.283395,18.0156945 L108.283395,27.024104 C108.283395,27.5236885 108.304903,28.3042097 108.526037,28.7434117 C108.832531,29.3357943 109.510047,29.389185 110.140512,29.4088887 L110.535057,29.4311348 L110.535057,30 L105,30 L105,29.4311348 L105.234576,29.4311348 C105.852943,29.389185 106.510294,29.3357943 106.816789,28.8025229 C107.097071,28.3620496 107.050693,27.5236885 107.050693,27.024104 L107.050693,19.9809808 C107.050693,18.7034176 107.189154,17.6909011 105.373709,17.5974674 L105,17.5764924 L105,17 L110.22789,17 L114.409933,26.7952868 L119.033572,17 L124,17 L124,17.5764924 L123.784916,17.5764924 C123.188057,17.6362392 122.577756,17.6909011 122.273949,18.2076468 C121.990307,18.662739 122.03198,19.4858456 122.03198,19.9809808 L122.03198,27.024104 C122.03198,28.287684 121.877388,29.2957512 123.674013,29.4088887 L124,29.4311348 L124,30 L117.937314,30 L117.937314,29.4311348 L118.133579,29.4311348 C118.699519,29.3713881 119.30982,29.3141837 119.592118,28.8025229 C119.889875,28.3461595 119.842826,27.5236885 119.842826,27.024104 L119.842826,18.3595561 L114.345408,30 L113.39971,30 Z" id="Fill-25"></path>
                <path d="M134,25 L131.467957,19 L129,25 L134,25 Z M137.462944,27.024104 C137.995994,28.2082335 138.313862,29.3516843 140,29.4311348 L140,30 L134.01349,30 L134.01349,29.4311348 C134.713322,29.3516843 135.671504,29.2182076 135.671504,28.4745514 C135.671504,28.1478512 135.482484,27.7130983 135.353636,27.4264411 L134.394146,25.1744976 L128.917794,25.1744976 L128.326534,26.6065125 C128.155827,27.0069427 127.832727,27.7493277 127.832727,28.1923434 C127.832727,29.1393928 128.683645,29.3357943 129.710502,29.4311348 L129.710502,30 L124,30 L124,29.4311348 L124.23742,29.3885494 C125.254466,29.1826138 125.616809,28.9544321 126.147243,28.1154354 C126.641704,27.3342786 127.171483,26.0522662 127.538405,25.1884809 L131.095123,17 L133.076892,17 L137.462944,27.024104 Z" id="Fill-27"></path>
            </g>
        </g>
    </g>
</svg>